<svg width="440" height="94" viewBox="0 0 440 94" fill="none" xmlns="http://www.w3.org/2000/svg">
<g clip-path="url(#clip0_1_2)">
<g filter="url(#filter0_n_1_2)">
<path d="M91.4017 39.1807C92.0621 38.3694 93.0579 37.8976 94.1103 37.8976H132.489C135.412 37.8976 137.032 41.2517 135.197 43.5056L95.2301 92.6041C94.5697 93.4154 93.5739 93.8872 92.5215 93.8872H54.1429C51.2196 93.8872 49.5996 90.5331 51.4343 88.2792L91.4017 39.1807Z" fill="url(#paint0_linear_1_2)"/>
<path d="M91.4017 39.1807C92.0621 38.3694 93.0579 37.8976 94.1103 37.8976H132.489C135.412 37.8976 137.032 41.2517 135.197 43.5056L95.2301 92.6041C94.5697 93.4154 93.5739 93.8872 92.5215 93.8872H54.1429C51.2196 93.8872 49.5996 90.5331 51.4343 88.2792L91.4017 39.1807Z" fill="url(#paint1_linear_1_2)" fill-opacity="0.2"/>
<path d="M94.1104 38.3976H132.489C135.001 38.3979 136.372 41.2699 134.81 43.1896L94.8428 92.2883C94.2779 92.9822 93.4245 93.3869 92.5215 93.3869H54.1426C51.6311 93.3866 50.2596 90.5146 51.8223 88.5949L91.7891 39.4963C92.3539 38.8024 93.2074 38.3976 94.1104 38.3976Z" stroke="url(#paint2_linear_1_2)"/>
</g>
<g filter="url(#filter1_n_1_2)">
<path d="M107.368 0C110.581 0 112.351 3.73453 110.315 6.22131L86.1557 35.7396C85.4323 36.6234 84.3504 37.1359 83.2083 37.1359H52.7676C51.615 37.136 50.5243 37.658 49.8013 38.5557L38.5636 52.5098C37.5602 53.7557 38.4471 55.6087 40.0469 55.6087H69.5595C71.1674 55.6087 72.0517 57.4782 71.0317 58.7212L42.8971 93.0005C42.5353 93.4412 41.9951 93.6968 41.4249 93.6968H14.3868C12.7789 93.6968 11.8946 91.8272 12.9146 90.5843L33.439 65.5771C34.4591 64.3342 33.5749 62.4645 31.9669 62.4645H3.81586C0.616488 62.4644 -1.15722 58.7585 0.849528 56.2666L45.0194 1.41975C45.7424 0.522026 46.8331 2.0336e-05 47.9858 0H107.368Z" fill="url(#paint3_linear_1_2)"/>
<path d="M107.368 0C110.581 0 112.351 3.73453 110.315 6.22131L86.1557 35.7396C85.4323 36.6234 84.3504 37.1359 83.2083 37.1359H52.7676C51.615 37.136 50.5243 37.658 49.8013 38.5557L38.5636 52.5098C37.5602 53.7557 38.4471 55.6087 40.0469 55.6087H69.5595C71.1674 55.6087 72.0517 57.4782 71.0317 58.7212L42.8971 93.0005C42.5353 93.4412 41.9951 93.6968 41.4249 93.6968H14.3868C12.7789 93.6968 11.8946 91.8272 12.9146 90.5843L33.439 65.5771C34.4591 64.3342 33.5749 62.4645 31.9669 62.4645H3.81586C0.616488 62.4644 -1.15722 58.7585 0.849528 56.2666L45.0194 1.41975C45.7424 0.522026 46.8331 2.0336e-05 47.9858 0H107.368Z" fill="url(#paint4_linear_1_2)" fill-opacity="0.2"/>
<path d="M47.9854 0.500031H107.367C110.159 0.500031 111.696 3.74404 109.929 5.90433L85.7686 35.4229C85.1402 36.1906 84.2002 36.6357 83.208 36.6358H52.7676C51.4636 36.6358 50.23 37.2267 49.4121 38.2422L38.1738 52.1963C36.9074 53.7694 38.0273 56.1084 40.0469 56.1084H69.5596C70.7453 56.1085 71.3977 57.4878 70.6455 58.4043L42.5107 92.6836C42.244 93.0086 41.8452 93.1963 41.4248 93.1963H14.3867C13.201 93.1963 12.5488 91.818 13.3008 90.9014L33.8252 65.8946C35.1132 64.3253 33.9969 61.9649 31.9668 61.9649H3.81543C1.03634 61.9644 -0.503962 58.7447 1.23926 56.5801L45.4092 1.73343C45.998 1.00235 46.8674 0.557569 47.7988 0.504912L47.9854 0.500031Z" stroke="url(#paint5_linear_1_2)"/>
</g>
<path d="M395.046 54.0353C395.046 42.8151 404.579 34.5283 417.486 34.5283C430.54 34.5283 440 42.3751 440 54.0353C440 65.4755 430.54 73.3956 417.486 73.3956C404.653 73.3956 395.046 65.1088 395.046 54.0353ZM405.313 54.0353C405.313 59.7554 410.519 63.8622 417.486 63.8622C424.82 63.8622 429.733 59.7554 429.733 54.0353C429.733 48.1686 424.82 43.9885 417.486 43.9885C410.446 43.9885 405.313 48.1686 405.313 54.0353Z" fill="white"/>
<path d="M343.566 46.7019C343.566 56.8221 350.973 63.8622 361.313 63.8622C369.16 63.8622 375.247 59.3155 377.3 52.202H360.8V43.6219H389.18V72.2957H379.94L379.133 65.4022C374.293 70.5356 367.767 73.3957 360.066 73.3957C344.74 73.3957 333.299 61.9555 333.299 46.7019C333.299 31.2283 344.813 19.8615 360.726 19.8615C373.853 19.8615 384.12 27.3416 387.42 39.1484H377.153C374.367 33.0617 368.353 29.3216 360.653 29.3216C350.68 29.3216 343.566 36.5084 343.566 46.7019Z" fill="white"/>
<path d="M294.171 55.2087V72.2956H283.904V35.6283H293.071L294.098 41.6418C297.325 37.2417 302.165 34.5283 307.885 34.5283C318.885 34.5283 326.585 42.9618 326.585 55.2087V72.2956H316.318V55.2087C316.318 48.6086 311.625 43.9885 305.098 43.9885C298.571 43.9885 294.171 48.6086 294.171 55.2087Z" fill="white"/>
<path d="M276.715 56.5287H243.421C244.521 61.8088 249.214 65.3288 255.374 65.3288C259.774 65.3288 263.294 63.7155 265.201 61.0754H275.615C272.828 68.5556 264.981 73.3956 254.934 73.3956C242.321 73.3956 232.861 65.1088 232.861 54.0353C232.861 42.8151 242.247 34.5283 254.934 34.5283C267.475 34.5283 276.861 42.3751 276.861 54.0353C276.861 54.842 276.861 55.722 276.715 56.5287ZM243.421 51.3953H266.301C265.274 46.1885 260.948 42.8151 254.934 42.8151C248.994 42.8151 244.521 46.2619 243.421 51.3953Z" fill="white"/>
<path d="M181.381 46.7019C181.381 56.8221 188.788 63.8622 199.128 63.8622C206.975 63.8622 213.061 59.3155 215.115 52.202H198.614V43.6219H226.995V72.2957H217.755L216.948 65.4022C212.108 70.5356 205.581 73.3957 197.881 73.3957C182.554 73.3957 171.114 61.9555 171.114 46.7019C171.114 31.2283 182.628 19.8615 198.541 19.8615C211.668 19.8615 221.935 27.3416 225.235 39.1484H214.968C212.181 33.0617 206.168 29.3216 198.468 29.3216C188.494 29.3216 181.381 36.5084 181.381 46.7019Z" fill="white"/>
</g>
<defs>
<filter id="filter0_n_1_2" x="50.6572" y="37.8976" width="85.3172" height="55.9896" filterUnits="userSpaceOnUse" color-interpolation-filters="sRGB">
<feFlood flood-opacity="0" result="BackgroundImageFix"/>
<feBlend mode="normal" in="SourceGraphic" in2="BackgroundImageFix" result="shape"/>
<feTurbulence type="fractalNoise" baseFrequency="3.3333332538604736 3.3333332538604736" stitchTiles="stitch" numOctaves="3" result="noise" seed="3615" />
<feColorMatrix in="noise" type="luminanceToAlpha" result="alphaNoise" />
<feComponentTransfer in="alphaNoise" result="coloredNoise1">
<feFuncA type="discrete" tableValues="0 0 0 0 0 0 0 0 0 0 0 0 0 0 1 1 1 1 1 1 1 1 1 1 1 1 1 1 1 1 1 1 1 1 1 1 1 0 0 0 0 0 0 0 0 0 0 0 0 0 0 0 0 0 0 0 0 0 0 0 0 0 0 0 0 0 0 0 0 0 0 0 0 0 0 0 0 0 0 0 0 0 0 0 0 0 0 0 0 0 0 0 0 0 0 0 0 0 0 0 "/>
</feComponentTransfer>
<feComposite operator="in" in2="shape" in="coloredNoise1" result="noise1Clipped" />
<feFlood flood-color="rgba(255, 255, 255, 0.1)" result="color1Flood" />
<feComposite operator="in" in2="noise1Clipped" in="color1Flood" result="color1" />
<feMerge result="effect1_noise_1_2">
<feMergeNode in="shape" />
<feMergeNode in="color1" />
</feMerge>
</filter>
<filter id="filter1_n_1_2" x="0" y="-0.000137329" width="111.184" height="93.6969" filterUnits="userSpaceOnUse" color-interpolation-filters="sRGB">
<feFlood flood-opacity="0" result="BackgroundImageFix"/>
<feBlend mode="normal" in="SourceGraphic" in2="BackgroundImageFix" result="shape"/>
<feTurbulence type="fractalNoise" baseFrequency="3.3333332538604736 3.3333332538604736" stitchTiles="stitch" numOctaves="3" result="noise" seed="3615" />
<feColorMatrix in="noise" type="luminanceToAlpha" result="alphaNoise" />
<feComponentTransfer in="alphaNoise" result="coloredNoise1">
<feFuncA type="discrete" tableValues="0 0 0 0 0 0 0 0 0 0 0 0 0 0 1 1 1 1 1 1 1 1 1 1 1 1 1 1 1 1 1 1 1 1 1 1 1 0 0 0 0 0 0 0 0 0 0 0 0 0 0 0 0 0 0 0 0 0 0 0 0 0 0 0 0 0 0 0 0 0 0 0 0 0 0 0 0 0 0 0 0 0 0 0 0 0 0 0 0 0 0 0 0 0 0 0 0 0 0 0 "/>
</feComponentTransfer>
<feComposite operator="in" in2="shape" in="coloredNoise1" result="noise1Clipped" />
<feFlood flood-color="rgba(255, 255, 255, 0.1)" result="color1Flood" />
<feComposite operator="in" in2="noise1Clipped" in="color1Flood" result="color1" />
<feMerge result="effect1_noise_1_2">
<feMergeNode in="shape" />
<feMergeNode in="color1" />
</feMerge>
</filter>
<linearGradient id="paint0_linear_1_2" x1="64.9217" y1="62.533" x2="93.1024" y2="99.6643" gradientUnits="userSpaceOnUse">
<stop stop-color="#9A4CFB"/>
<stop offset="0.601171" stop-color="#4912C0"/>
<stop offset="1" stop-color="#270C60"/>
</linearGradient>
<linearGradient id="paint1_linear_1_2" x1="88.7539" y1="49.4401" x2="98.6818" y2="71.5639" gradientUnits="userSpaceOnUse">
<stop stop-color="white"/>
<stop offset="1" stop-color="white" stop-opacity="0"/>
</linearGradient>
<linearGradient id="paint2_linear_1_2" x1="83.1872" y1="37.8976" x2="100.446" y2="96.0467" gradientUnits="userSpaceOnUse">
<stop stop-color="#E3B1FF"/>
<stop offset="1" stop-color="#644E70"/>
</linearGradient>
<linearGradient id="paint3_linear_1_2" x1="37.5168" y1="4.18969" x2="71.5917" y2="93.5193" gradientUnits="userSpaceOnUse">
<stop stop-color="#F7FD62"/>
<stop offset="0.333232" stop-color="#C9EC23"/>
<stop offset="1" stop-color="#8FAE09"/>
</linearGradient>
<linearGradient id="paint4_linear_1_2" x1="49.6467" y1="19.316" x2="68.8883" y2="52.7069" gradientUnits="userSpaceOnUse">
<stop stop-color="white"/>
<stop offset="1" stop-color="white" stop-opacity="0"/>
</linearGradient>
<linearGradient id="paint5_linear_1_2" x1="42.3924" y1="3.34572e-05" x2="77.6299" y2="92.4527" gradientUnits="userSpaceOnUse">
<stop stop-color="#FFFFD6"/>
<stop offset="1" stop-color="#E2F46A"/>
</linearGradient>
<clipPath id="clip0_1_2">
<rect width="440" height="94" fill="white"/>
</clipPath>
</defs>
</svg>
